<?xml version="1.0" standalone="no"?>
<!DOCTYPE svg PUBLIC "-//W3C//DTD SVG 20010904//EN"
 "http://www.w3.org/TR/2001/REC-SVG-20010904/DTD/svg10.dtd">
<svg version="1.0" xmlns="http://www.w3.org/2000/svg"
 width="184.000000pt" height="184.000000pt" viewBox="0 0 184.000000 184.000000"
 preserveAspectRatio="xMidYMid meet">

<g transform="translate(0.000000,184.000000) scale(0.100000,-0.100000)"
fill="#000000" stroke="none">
<path d="M0 920 l0 -920 920 0 920 0 0 920 0 920 -920 0 -920 0 0 -920z m571
549 c71 -45 113 -97 164 -203 l46 -94 52 -4 c29 -1 95 -1 147 2 l95 5 27 68
c40 101 75 145 157 204 41 29 77 51 79 48 2 -2 -12 -61 -32 -132 -20 -70 -37
-144 -38 -163 l-3 -35 168 -3 c165 -2 167 -3 167 -25 -1 -63 -86 -178 -155
-208 -22 -9 -68 -20 -102 -24 -68 -8 -63 -1 -79 -105 -24 -160 -142 -344 -277
-431 l-59 -38 -41 20 c-22 12 -77 58 -121 103 -108 108 -150 190 -174 338
l-17 108 -51 10 c-119 25 -208 90 -258 187 -31 62 -33 61 151 63 92 0 169 3
172 6 9 8 -48 245 -76 322 -8 19 6 15 58 -19z"/>
</g>
</svg>
